<svg width="746.6680299999999" height="384.00000000000006" xmlns="http://www.w3.org/2000/svg">
 <metadata id="metadata8">image/svg+xml</metadata>
 <defs>
  <clipPath clipPathUnits="userSpaceOnUse" id="clipPath74">
   <path d="m0,288l560.001,0l0,-288l-560.001,0l0,288z" id="path72"/>
  </clipPath>
  <clipPath clipPathUnits="userSpaceOnUse" id="clipPath106">
   <path d="m0,288l560.001,0l0,-288l-560.001,0l0,288z" id="path104"/>
  </clipPath>
 </defs>
 <g>
  <title>background</title>
  <rect fill="none" id="canvas_background" height="602" width="802" y="-1" x="-1"/>
 </g>
 <g>
  <title>Layer 1</title>
  <g transform="matrix(1.3333333,0,0,-1.3333333,0,384) " id="g70" clip-path="url(#clipPath74)">
   <g id="g76">
    <path fill="#000000" fill-rule="nonzero" d="m129.02589,140.7764c13.361,0 23.437,7.686 23.437,18.521c0,10.587 -9.953,18.525 -23.689,18.525c-10.328,0 -23.436,-5.167 -23.436,-18.272c0,-13.103 12.099,-18.774 23.688,-18.774m-0.627,48.386c22.557,0 32.38,-15.624 32.38,-30.365c0,-16.507 -12.093,-29.235 -31.372,-29.235c-20.416,0 -32.386,13.358 -32.386,30.24c0,17.516 12.727,29.36 31.378,29.36m-55.442,-16.759l12.354,-7.17c3.506,-2.035 5.663,-5.782 5.663,-9.835l0,-1.012l-10.663,4.026c-4.426,1.671 -7.354,5.907 -7.354,10.638l0,3.353z" id="path78"/>
   </g>
   <text font-weight="normal" font-size="125.979px" font-family="'Myriad Pro'" fill="#000000" fill-rule="nonzero" transform="matrix(-1,0,0,1,252.4512,120.2393) " id="text82">
    <tspan x="0" y="0" id="tspan80">Π</tspan>
   </text>
   <g id="g84">
    <path fill="#000000" fill-rule="nonzero" d="m144.438,88.8936c1.184,0.94 2.285,1.98 3.134,3.143c4.156,5.899 4.128,14.424 -0.747,20.527c-7.311,9.159 -19.435,8.181 -30.166,-0.382c-9.356,-7.468 -13.305,-18.682 -6.232,-27.545c5.426,-6.791 16.778,-9.504 29.973,1.033l4.038,3.224zm44.182,23.018c-2.245,-3.248 -9.082,-9.031 -16.467,-14.923l-22.059,-17.606c-12.308,-9.829 -20.336,-11.078 -27.265,-10.481c-6.85,0.498 -14.404,3.494 -20.14,10.684c-10.614,13.293 -7.428,29.705 6.853,41.104c16.839,13.44 34.017,9.897 42.979,-1.322c4.952,-6.207 6.714,-13.669 4.484,-19.955l0.237,-0.302l7.68,6.133c5.515,4.404 13.705,11.096 17.095,14.935l6.603,-8.267z" id="path86"/>
   </g>
   <text font-weight="normal" font-size="125.98045px" font-family="'Myriad Pro'" fill="#000000" fill-rule="nonzero" transform="matrix(0.86602643,0.49999821,0.49999821,-0.86602643,159.8365,157.0905) " id="text90">
    <tspan x="0" y="0" id="tspan88">ο</tspan>
   </text>
   <g id="g92">
    <path fill="#000000" fill-rule="nonzero" d="m248.79491,222.6875c-10.814,0.424 -22.544,-2.258 -29.225,-13.822c-7.117,-12.334 -3.029,-24.157 5.263,-28.942c8.402,-4.847 19.588,-1.852 26.521,10.15c4.285,7.424 4.321,15.55 0.578,24.691l-3.137,7.923zm28.998,8.144c-1.348,2.953 -5.881,9.215 -11.885,12.684c-6,3.464 -10.273,2.867 -11.782,0.253c-1.64,-2.843 0.11,-6.613 2.752,-13.38l4.792,-12.364c4.887,-11.7 5.714,-22.36 -0.335,-32.836c-9.452,-16.375 -27.02,-20.342 -41.208,-12.155c-13.641,7.88 -20.096,24.415 -10.331,41.325c7.812,13.533 22.255,17.125 36.016,16.018l0.316,0.547l-1.374,3.414c-1.313,3.519 -3.254,9.732 -0.357,14.751c3.402,5.893 13.121,8.87 25.448,1.747c7.64,-4.404 12.721,-10.98 14.437,-15.316l-6.489,-4.688z" id="path94"/>
   </g>
  </g>
  <text font-weight="normal" font-size="125.979px" font-family="'Myriad Pro'" fill="#000000" fill-rule="nonzero" transform="matrix(0,1.3333333,-1.3333333,0,334.63545830078,125.37373979899002) " id="text98">
   <tspan x="0" y="0" id="tspan96">ο</tspan>
  </text>
  <g transform="matrix(1.3333333,0,0,-1.3333333,0,384) " id="g100">
   <g id="g102" clip-path="url(#clipPath106)">
    <g id="g108">
     <path fill="#000000" fill-rule="nonzero" d="m295.5947,76.375c2.571,2.036 5.105,4.524 7.424,8.71c6.354,11.464 1.027,24.212 -9.885,30.259c-10.47,5.801 -19.143,3.408 -27.318,-4.592c-4.367,-4.494 -7.166,-7.987 -10.746,-12.629c-0.652,-0.648 -1.163,-0.797 -2.264,-0.182c-6.065,3.359 -13.478,12.079 -15.526,16.956l5.586,5.405c1.679,-2.949 7.479,-8.613 10.001,-10.297c2.676,3.272 5.647,6.808 8.36,9.626c9.368,9.362 22.139,13.951 36.466,6.01c14.326,-7.945 23.086,-26.192 12.819,-44.707c-2.627,-4.738 -6.01,-8.773 -9.08,-10.667l-5.837,6.108z" id="path110"/>
    </g>
    <g id="g112">
     <path fill="#cc0000" fill-rule="nonzero" d="m85.311,165.23289l-12.354,7.17l0,-3.353c0,-4.73 2.928,-8.966 7.354,-10.637l10.663,-4.027l0,1.013c0,4.053 -2.158,7.799 -5.663,9.834" id="path114"/>
    </g>
   </g>
  </g>
 </g>
</svg>