<?xml version="1.0" encoding="UTF-8" standalone="no"?>
<svg
   xmlns:dc="http://purl.org/dc/elements/1.1/"
   xmlns:cc="http://creativecommons.org/ns#"
   xmlns:rdf="http://www.w3.org/1999/02/22-rdf-syntax-ns#"
   xmlns:svg="http://www.w3.org/2000/svg"
   xmlns="http://www.w3.org/2000/svg"
   viewBox="0 0 746.66803 384"
   height="384"
   width="746.66803"
   xml:space="preserve"
   id="svg2"
   version="1.1"><metadata
     id="metadata8"><rdf:RDF><cc:Work
         rdf:about=""><dc:format>image/svg+xml</dc:format><dc:type
           rdf:resource="http://purl.org/dc/dcmitype/StillImage" /></cc:Work></rdf:RDF></metadata><defs
     id="defs6"><clipPath
       id="clipPath74"
       clipPathUnits="userSpaceOnUse"><path
         id="path72"
         d="M 0,288 H 560.001 V 0 H 0 Z" /></clipPath><clipPath
       id="clipPath106"
       clipPathUnits="userSpaceOnUse"><path
         id="path104"
         d="M 0,288 H 560.001 V 0 H 0 Z" /></clipPath></defs><g
     transform="matrix(1.3333333,0,0,-1.3333333,0,384)"
     id="g10"><text
       id="text14"
       style="font-variant:normal;font-weight:normal;font-stretch:normal;font-size:19.99999809px;font-family:'Myriad Pro';-inkscape-font-specification:MyriadPro-Regular;writing-mode:lr-tb;fill:#009245;fill-opacity:1;fill-rule:nonzero;stroke:none"
       transform="matrix(-0.62388007,0.78152009,0.78152009,0.62388007,26.3649,106.5414)"><tspan
         id="tspan12"
         y="0"
         x="0">ρ</tspan></text>
<text
       id="text18"
       style="font-variant:normal;font-weight:normal;font-stretch:normal;font-size:20px;font-family:'Myriad Pro';-inkscape-font-specification:MyriadPro-Regular;writing-mode:lr-tb;fill:#009245;fill-opacity:1;fill-rule:nonzero;stroke:none"
       transform="matrix(0,1,1,0,23.834,112.292)"><tspan
         id="tspan16"
         y="0"
         x="0">ό</tspan></text>
<text
       id="text22"
       style="font-variant:normal;font-weight:normal;font-stretch:normal;font-size:20.00008011px;font-family:'Myriad Pro';-inkscape-font-specification:MyriadPro-Regular;writing-mode:lr-tb;fill:#009245;fill-opacity:1;fill-rule:nonzero;stroke:none"
       transform="matrix(0.86602655,0.49999801,0.49999801,-0.86602655,23.8707,117.4545)"><tspan
         id="tspan20"
         y="0"
         x="0">ο</tspan></text>
<text
       id="text26"
       style="font-variant:normal;font-weight:normal;font-stretch:normal;font-size:20.00008011px;font-family:'Myriad Pro';-inkscape-font-specification:MyriadPro-Regular;writing-mode:lr-tb;fill:#009245;fill-opacity:1;fill-rule:nonzero;stroke:none"
       transform="matrix(0.86602655,-0.49999801,-0.49999801,-0.86602655,28.857,122.8749)"><tspan
         id="tspan24"
         y="0"
         x="0">δ</tspan></text>
<text
       id="text30"
       style="font-variant:normal;font-weight:normal;font-stretch:normal;font-size:20px;font-family:'Myriad Pro';-inkscape-font-specification:MyriadPro-Regular;writing-mode:lr-tb;fill:#009245;fill-opacity:1;fill-rule:nonzero;stroke:none"
       transform="matrix(0,-1,-1,0,38.3726,123.2773)"><tspan
         id="tspan28"
         y="0"
         x="0">ο</tspan></text>
<text
       id="text34"
       style="font-variant:normal;font-weight:normal;font-stretch:normal;font-size:20.00000954px;font-family:'Myriad Pro';-inkscape-font-specification:MyriadPro-Regular;writing-mode:lr-tb;fill:#009245;fill-opacity:1;fill-rule:nonzero;stroke:none"
       transform="matrix(-0.48480979,-0.87461961,-0.87461961,0.48480979,42.0646,115.3629)"><tspan
         id="tspan32"
         y="0"
         x="0">ς</tspan></text>
<text
       id="text38"
       style="font-variant:normal;font-weight:normal;font-stretch:normal;font-size:20px;font-family:'Myriad Pro';-inkscape-font-specification:MyriadPro-Regular;writing-mode:lr-tb;fill:#000000;fill-opacity:1;fill-rule:nonzero;stroke:none"
       transform="matrix(-1,0,0,1,42.6973,161.2441)"><tspan
         id="tspan36"
         y="0"
         x="0">Π</tspan></text>
<text
       id="text42"
       style="font-variant:normal;font-weight:normal;font-stretch:normal;font-size:19.99999809px;font-family:'Myriad Pro';-inkscape-font-specification:MyriadPro-Regular;writing-mode:lr-tb;fill:#000000;fill-opacity:1;fill-rule:nonzero;stroke:none"
       transform="matrix(-0.62388007,0.78152009,0.78152009,0.62388007,30.4567,156.2153)"><tspan
         id="tspan40"
         y="0"
         x="0">ρ</tspan></text>
<text
       id="text46"
       style="font-variant:normal;font-weight:normal;font-stretch:normal;font-size:20px;font-family:'Myriad Pro';-inkscape-font-specification:MyriadPro-Regular;writing-mode:lr-tb;fill:#000000;fill-opacity:1;fill-rule:nonzero;stroke:none"
       transform="matrix(0,1,1,0,27.9258,161.9639)"><tspan
         id="tspan44"
         y="0"
         x="0">ό</tspan></text>
<text
       id="text50"
       style="font-variant:normal;font-weight:normal;font-stretch:normal;font-size:20.00008011px;font-family:'Myriad Pro';-inkscape-font-specification:MyriadPro-Regular;writing-mode:lr-tb;fill:#000000;fill-opacity:1;fill-rule:nonzero;stroke:none"
       transform="matrix(0.86602655,0.49999801,0.49999801,-0.86602655,27.9635,167.1278)"><tspan
         id="tspan48"
         y="0"
         x="0">ο</tspan></text>
<text
       id="text54"
       style="font-variant:normal;font-weight:normal;font-stretch:normal;font-size:20.00008011px;font-family:'Myriad Pro';-inkscape-font-specification:MyriadPro-Regular;writing-mode:lr-tb;fill:#000000;fill-opacity:1;fill-rule:nonzero;stroke:none"
       transform="matrix(0.86602655,-0.49999801,-0.49999801,-0.86602655,32.9493,172.5477)"><tspan
         id="tspan52"
         y="0"
         x="0">δ</tspan></text>
<text
       id="text58"
       style="font-variant:normal;font-weight:normal;font-stretch:normal;font-size:20px;font-family:'Myriad Pro';-inkscape-font-specification:MyriadPro-Regular;writing-mode:lr-tb;fill:#000000;fill-opacity:1;fill-rule:nonzero;stroke:none"
       transform="matrix(0,-1,-1,0,42.4644,172.9502)"><tspan
         id="tspan56"
         y="0"
         x="0">ο</tspan></text>
<text
       id="text62"
       style="font-variant:normal;font-weight:normal;font-stretch:normal;font-size:20.00000954px;font-family:'Myriad Pro';-inkscape-font-specification:MyriadPro-Regular;writing-mode:lr-tb;fill:#000000;fill-opacity:1;fill-rule:nonzero;stroke:none"
       transform="matrix(-0.48480979,-0.87461961,-0.87461961,0.48480979,46.1564,165.0363)"><tspan
         id="tspan60"
         y="0"
         x="0">ς</tspan></text>
<text
       id="text66"
       style="font-variant:normal;font-weight:normal;font-stretch:normal;font-size:20px;font-family:'Myriad Pro';-inkscape-font-specification:MyriadPro-Regular;writing-mode:lr-tb;fill:#009245;fill-opacity:1;fill-rule:nonzero;stroke:none"
       transform="matrix(-1,0,0,1,38.6055,111.5723)"><tspan
         id="tspan64"
         y="0"
         x="0">Π</tspan></text>
<g
       id="g68"><g
         clip-path="url(#clipPath74)"
         id="g70"><g
           transform="translate(129.0259,140.7764)"
           id="g76"><path
             id="path78"
             style="fill:#000000;fill-opacity:1;fill-rule:nonzero;stroke:none"
             d="m 0,0 c 13.361,0 23.437,7.686 23.437,18.521 0,10.587 -9.953,18.525 -23.689,18.525 -10.328,0 -23.436,-5.167 -23.436,-18.272 C -23.688,5.671 -11.589,0 0,0 m -0.627,48.386 c 22.557,0 32.38,-15.624 32.38,-30.365 0,-16.507 -12.093,-29.235 -31.372,-29.235 -20.416,0 -32.386,13.358 -32.386,30.24 0,17.516 12.727,29.36 31.378,29.36 m -55.442,-16.759 12.354,-7.17 c 3.506,-2.035 5.663,-5.782 5.663,-9.835 V 13.61 l -10.663,4.026 c -4.426,1.671 -7.354,5.907 -7.354,10.638 z" /></g><text
           id="text82"
           style="font-variant:normal;font-weight:normal;font-stretch:normal;font-size:125.97899628px;font-family:'Myriad Pro';-inkscape-font-specification:MyriadPro-Regular;writing-mode:lr-tb;fill:#000000;fill-opacity:1;fill-rule:nonzero;stroke:none"
           transform="matrix(-1,0,0,1,252.4512,120.2393)"><tspan
             id="tspan80"
             y="0"
             x="0">Π</tspan></text>
<g
           transform="translate(144.438,88.8936)"
           id="g84"><path
             id="path86"
             style="fill:#000000;fill-opacity:1;fill-rule:nonzero;stroke:none"
             d="M 0,0 C 1.184,0.94 2.285,1.98 3.134,3.143 7.29,9.042 7.262,17.567 2.387,23.67 c -7.311,9.159 -19.435,8.181 -30.166,-0.382 -9.356,-7.468 -13.305,-18.682 -6.232,-27.545 5.426,-6.791 16.778,-9.504 29.973,1.033 z M 44.182,23.018 C 41.937,19.77 35.1,13.987 27.715,8.095 L 5.656,-9.511 c -12.308,-9.829 -20.336,-11.078 -27.265,-10.481 -6.85,0.498 -14.404,3.494 -20.14,10.684 -10.614,13.293 -7.428,29.705 6.853,41.104 16.839,13.44 34.017,9.897 42.979,-1.322 4.952,-6.207 6.714,-13.669 4.484,-19.955 l 0.237,-0.302 7.68,6.133 c 5.515,4.404 13.705,11.096 17.095,14.935 z" /></g><text
           id="text90"
           style="font-variant:normal;font-weight:normal;font-stretch:normal;font-size:125.98045349px;font-family:'Myriad Pro';-inkscape-font-specification:MyriadPro-Regular;writing-mode:lr-tb;fill:#000000;fill-opacity:1;fill-rule:nonzero;stroke:none"
           transform="matrix(0.86602643,0.49999821,0.49999821,-0.86602643,159.8365,157.0905)"><tspan
             id="tspan88"
             y="0"
             x="0">ο</tspan></text>
<g
           transform="translate(248.7949,222.6875)"
           id="g92"><path
             id="path94"
             style="fill:#000000;fill-opacity:1;fill-rule:nonzero;stroke:none"
             d="m 0,0 c -10.814,0.424 -22.544,-2.258 -29.225,-13.822 -7.117,-12.334 -3.029,-24.157 5.263,-28.942 8.402,-4.847 19.588,-1.852 26.521,10.15 4.285,7.424 4.321,15.55 0.578,24.691 z m 28.998,8.144 c -1.348,2.953 -5.881,9.215 -11.885,12.684 -6,3.464 -10.273,2.867 -11.782,0.253 -1.64,-2.843 0.11,-6.613 2.752,-13.38 l 4.792,-12.364 c 4.887,-11.7 5.714,-22.36 -0.335,-32.836 -9.452,-16.375 -27.02,-20.342 -41.208,-12.155 -13.641,7.88 -20.096,24.415 -10.331,41.325 7.812,13.533 22.255,17.125 36.016,16.018 l 0.316,0.547 -1.374,3.414 c -1.313,3.519 -3.254,9.732 -0.357,14.751 3.402,5.893 13.121,8.87 25.448,1.747 7.64,-4.404 12.721,-10.98 14.437,-15.316 z" /></g></g></g><text
       id="text98"
       style="font-variant:normal;font-weight:normal;font-stretch:normal;font-size:125.97899628px;font-family:'Myriad Pro';-inkscape-font-specification:MyriadPro-Regular;writing-mode:lr-tb;fill:#000000;fill-opacity:1;fill-rule:nonzero;stroke:none"
       transform="matrix(0,-1,-1,0,250.9766,193.9697)"><tspan
         id="tspan96"
         y="0"
         x="0">ο</tspan></text>
<g
       id="g100"><g
         clip-path="url(#clipPath106)"
         id="g102"><g
           transform="translate(295.5947,76.375)"
           id="g108"><path
             id="path110"
             style="fill:#000000;fill-opacity:1;fill-rule:nonzero;stroke:none"
             d="m 0,0 c 2.571,2.036 5.105,4.524 7.424,8.71 6.354,11.464 1.027,24.212 -9.885,30.259 -10.47,5.801 -19.143,3.408 -27.318,-4.592 -4.367,-4.494 -7.166,-7.987 -10.746,-12.629 -0.652,-0.648 -1.163,-0.797 -2.264,-0.182 -6.065,3.359 -13.478,12.079 -15.526,16.956 l 5.586,5.405 c 1.679,-2.949 7.479,-8.613 10.001,-10.297 2.676,3.272 5.647,6.808 8.36,9.626 9.368,9.362 22.139,13.951 36.466,6.01 C 16.424,41.321 25.184,23.074 14.917,4.559 12.29,-0.179 8.907,-4.214 5.837,-6.108 Z" /></g><g
           transform="translate(85.311,165.2329)"
           id="g112"><path
             id="path114"
             style="fill:#cc0000;fill-opacity:1;fill-rule:nonzero;stroke:none"
             d="M 0,0 -12.354,7.17 V 3.817 c 0,-4.73 2.928,-8.966 7.354,-10.637 l 10.663,-4.027 v 1.013 C 5.663,-5.781 3.505,-2.035 0,0" /></g></g></g></g></svg>